<?xml version="1.0" encoding="iso-8859-1"?>
<!-- Uploaded to: SVG Repo, www.svgrepo.com, Generator: SVG Repo Mixer Tools -->
<svg height="800px" width="800px" version="1.1" id="Layer_1" xmlns="http://www.w3.org/2000/svg" xmlns:xlink="http://www.w3.org/1999/xlink" 
	 viewBox="0 0 512 512" xml:space="preserve">
<circle style="fill:#FFE356;" cx="256" cy="255.934" r="255.934"/>
<path style="fill:#E4E7ED;" d="M16.786,347.17h478.428C458.483,443.54,365.272,512,256,512S53.517,443.54,16.786,347.17z"/>
<path style="fill:#5FDC68;" d="M367.642,175.626c-9.742-64.773,76.096-101.9,108.877-11.585c0,0-16.325-14.614-29.754-10.664
	c-18.431,5.398-28.042,49.502-78.992,22.249H367.642z"/>
<path style="fill:#56BF5D;" d="M467.83,145.082c3.16,5.529,6.056,11.849,8.689,18.958c0,0-16.325-14.614-29.754-10.664
	c-5.134,1.448-9.479,5.924-14.219,10.927l0,0c2.765-6.188,18.3-26.331,35.415-19.221H467.83z"/>
<path style="fill:#596366;" d="M452.164,137.051c-33.308-28.569-74.911,15.008-125.992,88.339l3.16,3.818
	c17.378-24.356,81.23-120.858,122.833-92.289V137.051z"/>
<path style="fill:#5FDC68;" d="M348.157,176.679c32.782-24.093,5.924-71.751-49.238-45.289c0,0,14.482-0.132,19.485,6.451
	c6.846,9.084-7.373,31.597,29.885,38.838H348.157z"/>
<path style="fill:#56BF5D;" d="M311.426,126.519c-3.95,1.185-8.163,2.896-12.507,5.003c0,0,14.482-0.132,19.485,6.451
	c1.843,2.501,2.238,6.056,2.37,10.006l0,0c1.317-3.686,2.238-18.037-9.347-21.328V126.519z"/>
<path style="fill:#596366;" d="M322.748,128.889c30.939-0.527,30.675,47.527,29.227,65.563l-4.608,6.056
	c1.975-24.356-0.263-70.171-24.488-71.619H322.748z"/>
<ellipse style="fill:#C6CBD6;" cx="261.924" cy="367.971" rx="214.332" ry="11.717"/>
<path style="fill:#FFFFFF;" d="M89.195,263.307h369.288c10.532,0,19.221,8.689,19.221,19.221v56.348
	c0,6.451-5.266,11.717-11.717,11.717H59.836C14.943,350.593,25.343,263.307,89.195,263.307z"/>
<ellipse style="fill:#C6CBD6;" cx="241.65" cy="279.368" rx="12.77" ry="3.555"/>
<g>
	<polygon style="fill:#ECF0F1;" points="142.778,263.307 145.411,263.307 145.411,295.43 142.778,295.43 	"/>
	<polygon style="fill:#ECF0F1;" points="400.555,263.307 403.32,263.307 403.32,295.43 400.555,295.43 	"/>
</g>
<path style="fill:#F7F9F7;" d="M34.954,303.461c2.37-7.636,6.319-15.14,11.717-21.591h15.93c2.633,0,4.871,2.238,4.871,5.134v11.454
	c0,2.765-2.238,5.134-4.871,5.134H34.954V303.461z"/>
<path style="fill:#ECF0F1;" d="M477.704,329.133v9.611c0,6.451-5.266,11.717-11.717,11.717H59.836
	c-14.482,0-23.171-9.084-26.199-21.328H477.704z"/>
<path style="fill:#83CF8F;" d="M35.349,301.618c2.238-6.846,5.924-13.56,10.927-19.353h14.877c2.501,0,4.608,2.106,4.608,4.608
	v10.269c0,2.501-2.106,4.608-4.608,4.608H35.349V301.618z"/>
<path style="fill:#596366;" d="M138.039,294.772c22.513,0,40.813,18.3,40.813,40.813s-18.3,40.813-40.813,40.813
	s-40.813-18.3-40.813-40.813S115.526,294.772,138.039,294.772z"/>
<path style="fill:#ECF0F1;" d="M138.039,311.229c13.429,0,24.356,10.927,24.356,24.356s-10.927,24.356-24.356,24.356
	s-24.356-10.927-24.356-24.356S124.61,311.229,138.039,311.229z"/>
<path style="fill:#FFFFFF;" d="M138.039,323.736c6.451,0,11.717,5.266,11.717,11.717s-5.266,11.717-11.717,11.717
	s-11.717-5.266-11.717-11.717S131.588,323.736,138.039,323.736z"/>
<path style="fill:#596366;" d="M406.743,294.772c22.513,0,40.813,18.3,40.813,40.813s-18.3,40.813-40.813,40.813
	s-40.813-18.3-40.813-40.813S384.23,294.772,406.743,294.772z"/>
<path style="fill:#ECF0F1;" d="M406.743,311.229c13.429,0,24.356,10.927,24.356,24.356s-10.927,24.356-24.356,24.356
	s-24.356-10.927-24.356-24.356S393.314,311.229,406.743,311.229z"/>
<g>
	<path style="fill:#FFFFFF;" d="M406.743,323.736c6.451,0,11.717,5.266,11.717,11.717s-5.266,11.717-11.717,11.717
		s-11.717-5.266-11.717-11.717S400.292,323.736,406.743,323.736z"/>
	<path style="fill:#FFFFFF;" d="M115.131,263.307c0,0,38.048-41.208,67.275-62.535c10.401-7.636,21.591-11.322,34.625-11.322
		h123.623c21.723,0,54.373,14.614,70.435,33.177l35.415,40.681H115.131z"/>
</g>
<g>
	<path style="fill:#83CF8F;" d="M229.406,200.376h-7.373h-15.008c-17.642,0-55.821,39.364-68.065,52.925
		c-0.658,0.79-0.922,1.711-0.658,2.765c0.395,0.922,1.185,1.58,2.238,1.58h7.241h105.454v-57.269H229.406z"/>
	<path style="fill:#83CF8F;" d="M278.249,200.376h49.633h18.036c10.269,0,39.364,10.269,50.95,25.146l21.854,27.779
		c0.658,0.79,1.053,1.711,0.658,2.765c-0.395,0.922-1.317,1.58-2.37,1.58h-8.689H265.216v-38.311v-6.583v-12.375h12.902H278.249z"/>
</g>
<polygon style="fill:#F7F9F7;" points="363.429,200.376 369.485,200.376 369.485,258.567 363.429,258.567 "/>
<path style="fill:#FF7069;" d="M471.912,283.45h5.529c1.317,0,2.238,1.053,2.238,2.238v13.824c0,1.317-1.053,2.238-2.238,2.238
	h-5.529c-1.317,0-2.238-1.053-2.238-2.238v-13.824C469.673,284.371,470.727,283.45,471.912,283.45z"/>
<g>
	<polygon style="fill:#ECF0F1;" points="258.238,263.307 261.003,263.307 261.003,350.593 258.238,350.593 	"/>
	<ellipse style="fill:#ECF0F1;" cx="241.65" cy="278.71" rx="12.77" ry="2.896"/>
</g>
<ellipse style="fill:#C6CBD6;" cx="381.729" cy="279.368" rx="12.77" ry="3.555"/>
<ellipse style="fill:#ECF0F1;" cx="381.729" cy="278.71" rx="12.77" ry="2.896"/>
</svg>